<svg width="311" height="312" viewBox="0 0 311 312" fill="none" xmlns="http://www.w3.org/2000/svg">
<path fill-rule="evenodd" clip-rule="evenodd" d="M146.585 0.241996C144.902 0.337941 140.27 0.809854 136.293 1.28958C71.2897 9.13529 17.5149 58.1714 3.58637 122.302C-0.696339 142.019 -1.15588 163.423 2.27508 183.383C7.36114 212.97 22.0079 241.858 43.1055 263.912C74.7618 297.005 119.586 314.626 164.621 311.682C202.942 309.177 236.637 294.298 263.99 267.801C281.687 250.658 296.092 227.526 303.377 204.554C312.559 175.596 313.464 145.254 305.996 116.723C296.031 78.6562 273.308 47.0335 240.217 25.1837C213.328 7.42893 179.318 -1.6306 146.585 0.241996ZM246.605 88.0571C246.761 88.8676 237.292 97.3091 199.435 130.111C195.894 133.179 184.927 142.718 175.063 151.308C165.199 159.899 156.79 167.002 156.375 167.094C155.96 167.186 152.022 164.162 147.625 160.373C143.228 156.585 128.74 144.106 115.43 132.644C102.119 121.182 85.4079 106.788 78.294 100.658C71.1801 94.5284 65.3591 89.2219 65.3591 88.866C65.3591 86.8573 64.5518 86.8734 156.565 87.0179C238.661 87.1468 246.447 87.2366 246.605 88.0571ZM90.0879 128.902C106.814 143.271 120.409 155.32 120.299 155.678C120.189 156.036 114.48 161.181 107.611 167.111C74.8825 195.371 59.1153 208.778 58.4271 208.934C58.0126 209.027 57.523 208.859 57.3383 208.559C57.1536 208.26 57.0023 184.353 57.0023 155.433C57.0023 101.603 57.0162 101.24 59.0151 102.396C59.379 102.606 73.3615 114.534 90.0879 128.902ZM254.057 104.55C254.156 105.063 254.112 128.471 253.959 156.566C253.704 203.345 253.604 207.648 252.771 207.648C251.345 207.648 192.133 156.503 192.323 155.435C192.57 154.041 251.237 103.697 252.666 103.653C253.377 103.63 253.951 104.001 254.057 104.55ZM145.419 174.179C150.934 178.934 155.797 182.825 156.226 182.825C156.655 182.825 161.358 179.066 166.678 174.472C171.997 169.878 176.667 166.113 177.056 166.105C177.444 166.097 182.577 170.18 188.461 175.178C194.345 180.176 207.295 191.146 217.24 199.556C241.952 220.453 245.057 223.103 245.057 223.291C245.057 223.381 244.905 223.851 244.719 224.337C244.413 225.136 236.079 225.219 156.003 225.219C69.2529 225.219 67.6128 225.199 67.0487 224.142C66.3388 222.812 65.6161 223.544 78.284 212.773C83.8736 208.02 98.5865 195.455 110.979 184.85C123.372 174.245 133.934 165.56 134.452 165.55C134.969 165.54 139.904 169.423 145.419 174.179Z" fill="#4E4E4E"/>
</svg>
