<svg width="285" height="278" viewBox="0 0 285 278" fill="none" xmlns="http://www.w3.org/2000/svg">
<path fill-rule="evenodd" clip-rule="evenodd" d="M135.728 0.0649293C114.943 1.29649 97.0831 5.92507 79.3651 14.673C73.2897 17.6724 70.1305 19.4839 64.4671 23.2145C48.4792 33.7467 35.0004 46.9416 24.7089 62.1357C8.59007 85.9324 0.00640866 113.26 5.0159e-06 140.801C-0.00389285 157.95 2.26383 172.397 7.36391 187.714C21.1337 229.068 53.3153 261.964 94.3989 276.683C96.969 277.604 97.8468 277.791 99.5939 277.791C100.75 277.791 102.173 277.648 102.757 277.473C104.294 277.012 105.774 275.67 106.527 274.052L107.184 272.64L107.187 258.478L107.19 244.317L106.505 244.489C104.539 244.983 97.0244 245.794 92.9906 245.949C83.3 246.32 74.9552 244.402 69.034 240.441C66.261 238.586 63.2048 235.491 61.6999 233.013C61.1214 232.061 59.9938 229.749 59.1944 227.875C55.2175 218.555 49.1034 210.273 43.9474 207.221C41.3324 205.673 38.2729 202.812 37.9786 201.639C37.4363 199.478 39.0469 198.413 43.16 198.215C47.8358 197.99 51.8124 199.084 55.8011 201.694C58.735 203.614 63.545 208.591 65.8372 212.078C70.8697 219.734 74.5178 223.236 80.092 225.764C83.7176 227.408 86.783 228.021 91.4593 228.039C96.4567 228.059 99.0343 227.615 104.024 225.875C105.94 225.207 107.554 224.615 107.609 224.56C107.664 224.505 107.971 223.179 108.289 221.614C109.507 215.641 111.878 210.685 115.323 206.916L116.684 205.426L115.765 205.272C115.26 205.188 112.791 204.806 110.279 204.423C75.7061 199.161 57.5807 182.049 53.06 150.403C52.0956 143.651 51.7696 133.58 52.3476 128.405C53.5726 117.442 57.9226 107.091 64.7631 98.8622C65.9333 97.455 66.5021 96.5473 66.3921 96.2635C66.2991 96.0238 65.9141 94.7641 65.5365 93.4643C63.1872 85.3766 63.1981 75.8254 65.5663 66.5908C66.9509 61.1932 67.8402 58.9676 68.6986 58.7521C69.9409 58.4402 75.8005 58.8907 78.2344 59.4852C85.6426 61.2948 94.0096 65.1385 103.485 71.0844L107.253 73.4495L111.328 72.4638C132.583 67.3223 156.039 67.4799 176.319 72.9001L178.488 73.4798L180.495 72.1413C186.264 68.2946 194.211 64.0386 199.625 61.8957C206.768 59.0684 215.883 57.6043 217.648 59.0007C218.173 59.4162 220.116 65.6555 220.972 69.6788C221.687 73.0374 221.738 73.7218 221.742 80.0954C221.747 87.4881 221.44 89.7914 219.817 94.5592L219.111 96.6325L219.899 97.4828C221.239 98.9291 223.428 101.844 225.032 104.32C231.688 114.593 234.438 126.382 233.604 141.072C232.587 158.982 228.096 172.385 219.641 182.738C214.513 189.017 206.459 194.831 198.044 198.327C190.938 201.279 181.519 203.699 172.758 204.823C168.549 205.362 168.761 205.188 170.271 206.867C173.612 210.581 175.741 214.812 177.026 220.292C178.302 225.736 178.308 225.874 178.317 250.086L178.326 273.196L178.944 274.353C180.288 276.866 183.215 278.297 186.297 277.948C189.321 277.606 200.005 273.251 208.111 269.057C226.133 259.733 242.306 246.231 255.185 229.759C257.994 226.166 263.764 217.582 266.04 213.609C279.474 190.163 286.049 163.642 284.864 137.682C284.687 133.805 284.354 128.941 284.125 126.874C279.735 87.2887 259.467 51.9644 227.386 27.9823C206.833 12.618 182.453 3.2055 156.47 0.602605C152.37 0.192178 139.302 -0.146688 135.728 0.0649293Z" fill="#4E4E4E"/>
</svg>
