<svg width="337" height="338" viewBox="0 0 337 338" fill="none" xmlns="http://www.w3.org/2000/svg">
<path fill-rule="evenodd" clip-rule="evenodd" d="M158.133 0.445586C123.559 2.43601 90.2888 15.3953 62.3745 37.7438C55.3639 43.3568 43.1473 55.5966 37.4782 62.6877C11.147 95.6228 -2.07723 136.619 0.265476 178.051C2.3222 214.434 14.6511 246.649 37.593 275.59C42.6742 282 56.127 295.417 62.8736 300.803C104.948 334.395 158.299 345.869 210.852 332.629C250.241 322.704 285.895 297.179 309.044 262.331C341.036 214.171 345.935 151.674 321.854 98.9116C305.977 64.1247 278.788 35.7354 244.79 18.4465C223.377 7.55768 202.009 1.81807 177.591 0.396551C168.373 -0.140333 168.309 -0.139833 158.133 0.445586ZM109.779 83.375C113.868 85.2934 117.834 89.1861 119.8 93.2095C121.164 96.002 121.266 96.614 121.266 101.966C121.266 107.217 121.148 107.961 119.911 110.472C117.103 116.173 112.364 120.101 106.313 121.743C95.075 124.793 83.6345 117.107 81.5309 105.093C79.8165 95.3015 86.4149 84.837 96.0273 82.1031C99.8852 81.0058 105.919 81.5637 109.779 83.375ZM222.081 138.709C235.159 142.395 245.165 152.43 249.004 165.711L250.28 170.127V211.1V252.073H233.56H216.841V219.641C216.841 191.419 216.738 186.856 216.045 184.491C213.381 175.4 207.176 169.743 198.367 168.376C189.211 166.955 178.715 172.174 174.311 180.336C171.441 185.653 171.424 185.887 171.424 220.406V252.073H154.705H137.986V195.283V138.492H154.705H171.424V146.315V154.138L172.504 152.695C177.279 146.314 184.457 141.336 192.136 139.08C197.135 137.612 197.553 137.578 208.856 137.729C216.605 137.832 219.814 138.07 222.081 138.709ZM118.521 195.283V252.073H101.553H84.5838V195.283V138.492H101.553H118.521V195.283Z" fill="#4E4E4E"/>
</svg>
