<svg width="428" height="428" viewBox="0 0 428 428" fill="none" xmlns="http://www.w3.org/2000/svg">
<path d="M192.6 0.951884C151.8 4.75188 110 22.1519 77.4003 48.8519C-10.3997 120.752 -25.6997 250.452 42.8003 342.352C91.5003 407.852 175.2 439.452 256.3 423.252C295.4 415.352 332 396.252 361.2 368.352C379.8 350.752 393.1 332.552 405 308.652C442.5 233.352 432.2 143.052 378.5 77.5519C334 23.2519 263.6 -5.74812 192.6 0.951884ZM222.7 24.7518C235 31.0518 246.8 49.1519 256.7 76.9519C260.1 86.5519 267.4 114.352 269.1 123.952L269.7 127.752H213.6H157.5L158.1 123.952C159.8 114.352 167.1 86.5519 170.5 76.9519C183 41.8519 198.1 22.7518 213.4 22.7518C216.8 22.7518 220.1 23.4518 222.7 24.7518ZM165.4 34.4519C153.7 53.6519 143.6 81.9519 137.1 114.252C135.6 121.352 134.3 127.352 134.2 127.552C134 127.652 113.3 127.652 88.2003 127.552L42.5003 127.252L48.9003 116.552C58.1003 101.152 65.4003 91.9519 79.1003 78.2519C97.1003 60.2519 116.8 46.8519 139.5 37.3519C149.2 33.2519 165.3 27.9519 168.3 27.8519C169 27.7519 167.7 30.7519 165.4 34.4519ZM272.4 31.6519C301.7 41.2519 326.8 56.7518 348.6 78.6518C360.9 90.9518 369.6 102.052 378.4 116.752L384.7 127.252L339 127.552C313.9 127.652 293.2 127.652 293 127.552C292.9 127.352 291.6 121.352 290.1 114.252C283.6 81.9519 273.5 53.6519 261.8 34.4519C258.9 29.8519 258.1 27.7518 259.1 27.7518C259.9 27.7518 265.9 29.4519 272.4 31.6519ZM131.2 152.452C129.4 161.652 128.2 186.352 128.2 213.752C128.2 241.152 129.4 265.852 131.2 274.952L131.8 277.752H82.3003H32.9003L30.8003 270.452C24.5003 248.952 22.6003 235.752 22.6003 213.752C22.6003 191.752 24.5003 178.552 30.8003 156.952L32.9003 149.752H82.3003H131.8L131.2 152.452ZM274.7 163.952C275.6 173.152 276.1 190.952 276.1 213.752C276.1 236.552 275.6 254.352 274.7 263.452L273.3 277.752H213.6H153.9L152.5 263.452C151.6 254.352 151.1 236.552 151.1 213.752C151.1 190.952 151.6 173.152 152.5 163.952L153.9 149.752H213.6H273.3L274.7 163.952ZM396.4 156.952C402.7 178.552 404.6 191.752 404.6 213.652C404.6 235.152 402.6 249.252 396.4 270.452L394.3 277.752H344.9H295.4L296 274.952C300 255.252 299.9 172.752 296 152.452L295.4 149.752H344.9H394.3L396.4 156.952ZM135.2 303.452C141.2 338.652 152.6 372.152 165.5 393.052L169.7 399.952L166.4 399.252C153.1 396.552 128.5 386.052 113.9 376.952C85.2003 359.152 58.6003 330.952 44.2003 302.952L42.5003 299.752H88.5003H134.5L135.2 303.452ZM269.1 303.452C267.4 313.152 260.1 340.952 256.7 350.552C246.8 378.352 235 396.452 222.7 402.752C204.8 411.852 185.5 392.652 170.5 350.552C167.1 340.952 159.8 313.152 158.1 303.452L157.5 299.752H213.6H269.7L269.1 303.452ZM383 302.952C368.6 330.952 342 359.152 313.3 376.952C298.7 386.052 274.1 396.552 260.8 399.252L257.5 399.952L261.7 393.052C274.6 372.152 286 338.652 292 303.452L292.7 299.752H338.7H384.7L383 302.952Z" fill="#FFFFE4"/>
</svg>
